<?xml version="1.0" encoding="UTF-8"?>
<svg id="Layer_2" data-name="Layer 2" xmlns="http://www.w3.org/2000/svg" viewBox="0 0 313.71 100">
  <defs>
    <style>
      .cls-1 {
        fill: #72cbcb;
      }
    </style>
  </defs>
  <g id="Layer_1" data-name="Layer 1">
    <g>
      <path class="cls-1" d="M83.73,43.05c-5.46,6.49-14.01,10.71-22.45,11.64-2.88,15.65-16.38,23.79-31,23.79-15.55,0-30.28-9.27-30.28-28.12V0h19.57v25.13c4.53-3.91,10.3-5.56,16.07-5.56,11.74,0,21.11,6.9,24.72,18.13,3.81.82,8.86-1.44,13.29-6.18l10.09,11.53ZM41.81,49.12c-3.09-2.88-5.25-7-6.28-12.46-1.44-.72-3.19-1.13-5.05-1.13-4.43,0-8.65,2.27-10.92,6.18v7.72c0,7.62,3.91,12.36,10.92,12.36s11.23-4.43,11.33-12.67Z"/>
      <path class="cls-1" d="M153.14,66.01c-5.87,8.03-15.55,12.46-24.72,12.46-6.69,0-12.87-2.37-16.27-7.31-4.74,4.84-11.53,7.31-18.74,7.31-11.95,0-23.17-6.59-23.17-20.29V20.91h19.57v31.51c0,5.15,2.68,9.37,9.27,9.37,4.12,0,7.72-1.65,9.89-4.63V20.91h19.57v35.22c0,3.91,2.06,5.97,5.05,5.97s6.39-1.96,9.58-5.87l9.99,9.78Z"/>
      <path class="cls-1" d="M211.54,66.01c-6.8,8.34-14.42,12.46-23.27,12.46-11.74,0-18.64-7.21-27.4-18.85-9.06,12.26-18.13,19.05-31.41,18.85l.62-16.38c8.75,1.75,13.8-6.49,20.7-16.07-4.33-5.66-8.96-10.5-14.11-10.61h-.52l.31-15.45c1.44-.21,2.88-.31,4.22-.31,9.47,0,15.34,5.36,22.86,14.73,8.75-10.71,13.8-14.73,22.56-14.73,1.65,0,3.4.1,5.15.41l-.62,14.83c-.31-.1-.62-.1-.82-.1-5.66,0-8.86,3.91-16.38,12.77,7.31,9.47,12.36,14.73,17.41,14.73,3.6,0,7.62-2.27,10.81-6.28l9.89,9.99Z"/>
      <path class="cls-1" d="M243.16,66.01c-5.87,8.03-15.55,12.46-24.72,12.46-10.5,0-19.46-5.77-19.46-17.71V0h19.57v56.13c0,3.91,2.06,5.97,5.05,5.97s6.39-1.96,9.58-5.87l9.99,9.78Z"/>
      <path class="cls-1" d="M313.71,66.01c-5.56,7.72-14.42,12.05-22.97,12.46-.52,0-1.03,0-1.55-.1v2.57c0,13.29-10.81,19.05-23.38,19.05-10.61,0-21.22-4.12-21.22-13.8,0-9.17,9.47-13.7,19.05-13.7,2.06,0,4.02.21,5.97.62v-6.39c-4.43,3.5-10.4,5.25-16.48,5.25-11.54,0-22.35-6.39-22.35-20.29v-30.79h19.57v25.64c0,6.39,4.43,8.86,9.48,8.86,4.02,0,7.83-1.75,9.78-4.74v-29.76h19.57v41.09c1.24.31,2.37.41,3.4.41,5.15,0,8.44-2.68,10.92-6.08l10.2,9.68ZM269.63,81.67c-1.96-.52-3.91-.72-5.56-.72-3.91,0-6.8,1.34-6.8,3.6s2.57,3.3,5.25,3.3c3.6,0,6.8-1.96,7.11-6.18Z"/>
    </g>
  </g>
</svg>