<?xml version="1.0" encoding="UTF-8"?>
<svg id="Layer_3" data-name="Layer 3" xmlns="http://www.w3.org/2000/svg" viewBox="0 0 658.81 100">
  <defs>
    <style>
      .cls-1 {
        fill: #f2f2f3;
      }
    </style>
  </defs>
  <g id="Layer_1" data-name="Layer 1">
    <g>
      <path class="cls-1" d="M380.15,22.84v5.21h-16.54l2.95-2.95v20.05h-6.16v-22.31h19.76ZM363.4,31.98h16.19v5.21h-16.19v-5.21Z"/>
      <path class="cls-1" d="M385.95,26.5c-1.05,0-1.9-.26-2.56-.79-.65-.53-.98-1.24-.98-2.16s.33-1.61.98-2.14c.65-.54,1.51-.8,2.56-.8s1.96.27,2.6.8c.64.54.97,1.25.97,2.14s-.32,1.63-.97,2.16c-.64.53-1.51.79-2.6.79ZM382.92,27.9l3.06.6,3.04-.6v17.26h-6.1v-17.26Z"/>
      <path class="cls-1" d="M391.55,28.17h6.1l1.1,6.78v10.21h-6.07v-11.13l-1.13-5.86ZM404.99,27.66c1.63,0,3.02.33,4.17.98,1.15.65,2.03,1.58,2.63,2.77.61,1.19.91,2.6.91,4.23v9.52h-6.07v-8.63c0-1.27-.32-2.24-.97-2.92-.65-.67-1.57-1.01-2.78-1.01-.83,0-1.56.18-2.19.54-.63.36-1.11.86-1.44,1.52-.34.65-.51,1.43-.51,2.32l-1.88-.98c.24-1.8.74-3.33,1.52-4.57.77-1.24,1.73-2.18,2.86-2.81,1.13-.63,2.38-.95,3.75-.95Z"/>
      <path class="cls-1" d="M432.61,36.68c-.28,1.79-.83,3.35-1.65,4.7-.82,1.35-1.87,2.39-3.12,3.14s-2.69,1.12-4.3,1.12-3.13-.37-4.39-1.12c-1.26-.74-2.25-1.79-2.96-3.15-.71-1.36-1.07-2.92-1.07-4.69s.36-3.38,1.07-4.73,1.7-2.4,2.96-3.15c1.26-.75,2.72-1.13,4.39-1.13s3.04.37,4.3,1.12,2.31,1.79,3.14,3.12,1.38,2.93,1.64,4.78ZM421.27,36.68c0,.83.17,1.58.52,2.23.35.65.83,1.17,1.44,1.53.61.37,1.32.55,2.11.55.83,0,1.62-.18,2.35-.55.73-.37,1.38-.88,1.93-1.53.56-.65.97-1.4,1.25-2.23-.28-.85-.69-1.61-1.25-2.26-.56-.65-1.2-1.17-1.93-1.55-.73-.38-1.52-.57-2.35-.57s-1.5.19-2.11.57c-.62.38-1.1.89-1.44,1.55-.35.65-.52,1.41-.52,2.26ZM431.18,45.16l-.77-6.13.8-2.35-.8-2.35.77-6.16h6.31l-1.07,8.48,1.07,8.51h-6.31Z"/>
      <path class="cls-1" d="M439.6,28.17h6.1l1.1,6.78v10.21h-6.07v-11.13l-1.13-5.86ZM453.05,27.66c1.63,0,3.02.33,4.17.98,1.15.65,2.03,1.58,2.63,2.77.6,1.19.91,2.6.91,4.23v9.52h-6.07v-8.63c0-1.27-.32-2.24-.97-2.92-.64-.67-1.57-1.01-2.78-1.01-.83,0-1.56.18-2.19.54-.62.36-1.11.86-1.44,1.52-.34.65-.51,1.43-.51,2.32l-1.87-.98c.24-1.8.74-3.33,1.52-4.57.77-1.24,1.73-2.18,2.86-2.81,1.13-.63,2.38-.95,3.75-.95Z"/>
      <path class="cls-1" d="M484.14,37.99c-.16,1.53-.72,2.87-1.67,4.02s-2.19,2.04-3.7,2.68-3.22.95-5.1.95c-2.08,0-3.92-.38-5.5-1.13-1.59-.75-2.83-1.8-3.72-3.15-.89-1.35-1.34-2.91-1.34-4.67s.45-3.35,1.34-4.7c.89-1.35,2.13-2.4,3.72-3.17,1.59-.76,3.42-1.15,5.5-1.15,1.88,0,3.59.32,5.1.97,1.52.64,2.75,1.54,3.7,2.68.95,1.14,1.51,2.48,1.67,4.03h-6.04c-.22-1.01-.72-1.79-1.52-2.34-.79-.55-1.77-.82-2.92-.82-.89,0-1.67.17-2.34.52-.66.35-1.18.85-1.55,1.52-.37.66-.55,1.48-.55,2.45s.18,1.76.55,2.43c.37.66.88,1.17,1.55,1.52.66.35,1.44.52,2.34.52,1.15,0,2.13-.29,2.93-.86.8-.57,1.3-1.34,1.5-2.29h6.04Z"/>
      <path class="cls-1" d="M489.58,26.5c-1.05,0-1.9-.26-2.56-.79-.65-.53-.98-1.24-.98-2.16s.33-1.61.98-2.14c.65-.54,1.51-.8,2.56-.8s1.96.27,2.6.8c.64.54.97,1.25.97,2.14s-.32,1.63-.97,2.16c-.64.53-1.51.79-2.6.79ZM486.55,27.9l3.06.6,3.04-.6v17.26h-6.1v-17.26Z"/>
      <path class="cls-1" d="M512.76,36.68c-.28,1.79-.83,3.35-1.65,4.7s-1.86,2.39-3.12,3.14-2.69,1.12-4.3,1.12-3.13-.37-4.39-1.12c-1.26-.74-2.25-1.79-2.96-3.15-.71-1.36-1.07-2.92-1.07-4.69s.36-3.38,1.07-4.73c.72-1.35,1.7-2.4,2.96-3.15,1.26-.75,2.72-1.13,4.39-1.13s3.04.37,4.3,1.12,2.31,1.79,3.14,3.12c.83,1.34,1.38,2.93,1.64,4.78ZM501.42,36.68c0,.83.17,1.58.52,2.23.35.65.83,1.17,1.44,1.53.61.37,1.32.55,2.11.55s1.62-.18,2.35-.55c.73-.37,1.38-.88,1.93-1.53.56-.65.97-1.4,1.25-2.23-.28-.85-.7-1.61-1.25-2.26-.55-.65-1.2-1.17-1.93-1.55s-1.52-.57-2.35-.57-1.5.19-2.11.57-1.1.89-1.44,1.55c-.35.65-.52,1.41-.52,2.26ZM511.33,45.16l-.77-6.13.8-2.35-.8-2.35.77-6.16h6.31l-1.07,8.48,1.07,8.51h-6.31Z"/>
      <path class="cls-1" d="M520.55,22.25h6.1v22.91h-6.1v-22.91Z"/>
      <path class="cls-1" d="M537.78,22.84h6.16v22.31h-6.16v-22.31ZM541.23,31.09h16.66v5.47h-16.66v-5.47ZM555.33,22.84h6.19v22.31h-6.19v-22.31Z"/>
      <path class="cls-1" d="M574.94,45.64c-2.06,0-3.9-.38-5.52-1.13-1.62-.75-2.89-1.81-3.82-3.17-.93-1.36-1.4-2.94-1.4-4.75s.45-3.32,1.34-4.66c.89-1.34,2.12-2.38,3.67-3.14s3.32-1.13,5.28-1.13,3.78.44,5.22,1.32c1.44.88,2.55,2.13,3.33,3.73.78,1.61,1.18,3.5,1.18,5.68h-15.11v-3.66h11.69l-1.99,1.28c-.08-.87-.3-1.61-.65-2.22-.36-.61-.83-1.07-1.41-1.38s-1.29-.48-2.1-.48c-.89,0-1.66.18-2.29.54-.64.36-1.13.85-1.49,1.47s-.54,1.35-.54,2.19c0,1.07.24,1.98.73,2.72.49.74,1.2,1.31,2.14,1.71.94.4,2.1.6,3.47.6,1.25,0,2.49-.16,3.73-.49,1.24-.33,2.37-.79,3.38-1.38v3.87c-1.17.79-2.5,1.4-4,1.83s-3.11.64-4.83.64Z"/>
      <path class="cls-1" d="M603.59,36.68c-.28,1.79-.83,3.35-1.65,4.7-.82,1.35-1.86,2.39-3.12,3.14-1.26.74-2.69,1.12-4.3,1.12s-3.13-.37-4.39-1.12c-1.26-.74-2.25-1.79-2.96-3.15-.72-1.36-1.07-2.92-1.07-4.69s.36-3.38,1.07-4.73c.71-1.35,1.7-2.4,2.96-3.15,1.26-.75,2.72-1.13,4.39-1.13s3.04.37,4.3,1.12c1.26.74,2.3,1.79,3.14,3.12s1.38,2.93,1.64,4.78ZM592.26,36.68c0,.83.17,1.58.52,2.23.35.65.83,1.17,1.44,1.53.61.37,1.32.55,2.11.55.83,0,1.62-.18,2.35-.55.73-.37,1.38-.88,1.93-1.53.55-.65.97-1.4,1.25-2.23-.28-.85-.7-1.61-1.25-2.26-.56-.65-1.2-1.17-1.93-1.55-.74-.38-1.52-.57-2.35-.57s-1.5.19-2.11.57-1.1.89-1.44,1.55c-.35.65-.52,1.41-.52,2.26ZM602.16,45.16l-.77-6.13.8-2.35-.8-2.35.77-6.16h6.31l-1.07,8.48,1.07,8.51h-6.31Z"/>
      <path class="cls-1" d="M611.39,22.25h6.1v22.91h-6.1v-22.91Z"/>
      <path class="cls-1" d="M619.33,32.66v-2.65l3.45-1.4,2.62-5.03h3.45v4.58h7.14v4.49h-7.14v5c0,1.23.25,2.09.74,2.59.5.5,1.4.74,2.71.74.83,0,1.57-.07,2.21-.22.65-.15,1.24-.34,1.77-.58v4.58c-.59.22-1.38.42-2.35.59s-1.97.27-3.01.27c-1.88,0-3.43-.29-4.63-.86-1.2-.57-2.09-1.4-2.66-2.48-.58-1.08-.86-2.35-.86-3.79v-5.83h-3.45Z"/>
      <path class="cls-1" d="M638.76,22.25h6.1v22.91h-6.1v-22.91ZM651.08,27.66c1.65,0,3.04.33,4.18.98,1.14.65,2.02,1.58,2.63,2.77.61,1.19.92,2.6.92,4.23v9.52h-6.1v-8.63c0-1.27-.32-2.24-.97-2.92-.65-.67-1.57-1.01-2.78-1.01-.83,0-1.56.18-2.19.54-.63.36-1.1.86-1.43,1.52-.33.65-.49,1.43-.49,2.32l-1.9-.98c.24-1.8.74-3.33,1.52-4.57.77-1.24,1.73-2.18,2.87-2.81,1.14-.63,2.38-.95,3.73-.95Z"/>
      <path class="cls-1" d="M393.01,53.97v22.31h-5.86v-20.11l1.31.15-8.63,19.96h-6.25l-8.66-19.91,1.34-.15v20.05h-5.86v-22.31h9.52l8,19.16h-2.38l7.94-19.16h9.52Z"/>
      <path class="cls-1" d="M406.42,76.76c-2.06,0-3.9-.38-5.52-1.13s-2.89-1.81-3.82-3.17c-.93-1.36-1.4-2.94-1.4-4.75s.45-3.32,1.34-4.66c.89-1.34,2.12-2.38,3.67-3.14,1.56-.75,3.32-1.13,5.28-1.13s3.78.44,5.22,1.32,2.55,2.13,3.33,3.73c.78,1.61,1.18,3.5,1.18,5.68h-15.12v-3.66h11.69l-1.99,1.28c-.08-.87-.3-1.61-.65-2.22-.36-.61-.83-1.07-1.41-1.38-.59-.32-1.29-.48-2.1-.48-.89,0-1.66.18-2.29.54-.63.36-1.13.85-1.49,1.47-.36.62-.54,1.35-.54,2.19,0,1.07.24,1.98.73,2.72.49.74,1.2,1.31,2.14,1.71.94.4,2.1.59,3.47.59,1.25,0,2.49-.16,3.73-.49,1.24-.33,2.37-.79,3.38-1.38v3.87c-1.17.79-2.5,1.4-4,1.83-1.5.43-3.11.64-4.84.64Z"/>
      <path class="cls-1" d="M417.4,59.3h6.1l1.1,6.78v10.21h-6.07v-11.13l-1.13-5.86ZM430.85,58.79c1.63,0,3.02.33,4.17.98,1.15.65,2.03,1.58,2.63,2.77.6,1.19.91,2.6.91,4.23v9.52h-6.07v-8.63c0-1.27-.32-2.24-.97-2.92-.64-.67-1.57-1.01-2.78-1.01-.83,0-1.56.18-2.19.54-.62.36-1.11.86-1.44,1.52-.34.65-.51,1.43-.51,2.32l-1.87-.98c.24-1.8.74-3.33,1.52-4.57.77-1.24,1.73-2.18,2.86-2.81s2.38-.95,3.75-.95Z"/>
      <path class="cls-1" d="M439.93,63.79v-2.65l3.45-1.4,2.62-5.03h3.45v4.58h7.14v4.49h-7.14v5c0,1.23.25,2.09.74,2.59.5.5,1.4.74,2.71.74.83,0,1.57-.07,2.22-.22.64-.15,1.23-.34,1.77-.58v4.58c-.6.22-1.38.42-2.35.59s-1.97.27-3.01.27c-1.89,0-3.43-.29-4.63-.86-1.2-.58-2.09-1.4-2.66-2.48-.58-1.08-.86-2.35-.86-3.79v-5.83h-3.45Z"/>
      <path class="cls-1" d="M475.72,67.81c-.28,1.78-.83,3.35-1.65,4.7-.82,1.35-1.86,2.39-3.12,3.14-1.26.74-2.69,1.12-4.3,1.12s-3.13-.37-4.39-1.12c-1.26-.74-2.25-1.79-2.96-3.15-.71-1.36-1.07-2.92-1.07-4.69s.36-3.38,1.07-4.73,1.7-2.4,2.96-3.15c1.26-.75,2.72-1.13,4.39-1.13s3.04.37,4.3,1.12c1.26.74,2.31,1.79,3.14,3.12s1.38,2.93,1.64,4.78ZM464.38,67.81c0,.83.17,1.58.52,2.23.35.65.83,1.17,1.44,1.53s1.32.55,2.11.55c.83,0,1.62-.18,2.35-.55.73-.37,1.38-.88,1.93-1.53.55-.65.97-1.4,1.25-2.23-.28-.85-.7-1.61-1.25-2.26-.56-.65-1.2-1.17-1.93-1.55-.74-.38-1.52-.57-2.35-.57s-1.5.19-2.11.57-1.1.89-1.44,1.55c-.35.65-.52,1.41-.52,2.26ZM474.29,76.29l-.77-6.13.8-2.35-.8-2.35.77-6.16h6.31l-1.07,8.48,1.07,8.51h-6.31Z"/>
      <path class="cls-1" d="M483.51,53.38h6.1v22.91h-6.1v-22.91Z"/>
      <path class="cls-1" d="M527.97,73.67h-1.94l5.57-19.7h6.52l-6.78,22.31h-7.94l-6.46-19.04h2.53l-6.49,19.04h-7.91l-6.81-22.31h6.55l5.56,19.7-1.9-.03,6.49-19.67h6.52l6.52,19.7Z"/>
      <path class="cls-1" d="M548.19,76.76c-2.06,0-3.9-.38-5.52-1.13-1.62-.75-2.89-1.81-3.82-3.17s-1.4-2.94-1.4-4.75.44-3.32,1.34-4.66c.89-1.34,2.12-2.38,3.67-3.14,1.56-.75,3.32-1.13,5.28-1.13s3.78.44,5.22,1.32c1.44.88,2.55,2.13,3.33,3.73.78,1.61,1.18,3.5,1.18,5.68h-15.12v-3.66h11.69l-1.99,1.28c-.08-.87-.3-1.61-.65-2.22-.36-.61-.83-1.07-1.41-1.38-.59-.32-1.29-.48-2.1-.48-.89,0-1.66.18-2.29.54-.63.36-1.13.85-1.49,1.47-.36.62-.53,1.35-.53,2.19,0,1.07.24,1.98.73,2.72.49.74,1.2,1.31,2.14,1.71.94.4,2.1.59,3.47.59,1.25,0,2.49-.16,3.73-.49s2.36-.79,3.38-1.38v3.87c-1.17.79-2.51,1.4-4,1.83-1.5.43-3.11.64-4.83.64Z"/>
      <path class="cls-1" d="M576.85,67.81c-.28,1.78-.83,3.35-1.65,4.7s-1.86,2.39-3.12,3.14c-1.26.74-2.69,1.12-4.3,1.12s-3.13-.37-4.39-1.12c-1.26-.74-2.25-1.79-2.96-3.15-.71-1.36-1.07-2.92-1.07-4.69s.36-3.38,1.07-4.73c.72-1.35,1.7-2.4,2.96-3.15,1.26-.75,2.72-1.13,4.39-1.13s3.04.37,4.3,1.12c1.26.74,2.31,1.79,3.14,3.12.83,1.34,1.38,2.93,1.64,4.78ZM565.51,67.81c0,.83.17,1.58.52,2.23.35.65.83,1.17,1.44,1.53s1.32.55,2.11.55,1.62-.18,2.35-.55,1.38-.88,1.93-1.53c.56-.65.97-1.4,1.25-2.23-.28-.85-.7-1.61-1.25-2.26-.55-.65-1.2-1.17-1.93-1.55s-1.52-.57-2.35-.57-1.5.19-2.11.57-1.1.89-1.44,1.55c-.35.65-.52,1.41-.52,2.26ZM575.42,76.29l-.77-6.13.8-2.35-.8-2.35.77-6.16h6.31l-1.07,8.48,1.07,8.51h-6.31Z"/>
      <path class="cls-1" d="M584.64,53.38h6.1v22.91h-6.1v-22.91Z"/>
      <path class="cls-1" d="M592.59,63.79v-2.65l3.45-1.4,2.62-5.03h3.45v4.58h7.14v4.49h-7.14v5c0,1.23.25,2.09.74,2.59.49.5,1.4.74,2.71.74.83,0,1.57-.07,2.22-.22.64-.15,1.23-.34,1.77-.58v4.58c-.59.22-1.38.42-2.35.59s-1.97.27-3,.27c-1.88,0-3.43-.29-4.63-.86-1.2-.58-2.09-1.4-2.66-2.48-.57-1.08-.86-2.35-.86-3.79v-5.83h-3.45Z"/>
      <path class="cls-1" d="M612.01,53.38h6.1v22.91h-6.1v-22.91ZM624.33,58.79c1.65,0,3.04.33,4.18.98,1.14.65,2.02,1.58,2.63,2.77.61,1.19.92,2.6.92,4.23v9.52h-6.1v-8.63c0-1.27-.32-2.24-.97-2.92-.64-.67-1.57-1.01-2.78-1.01-.83,0-1.56.18-2.19.54-.62.36-1.1.86-1.43,1.52-.33.65-.49,1.43-.49,2.32l-1.9-.98c.24-1.8.74-3.33,1.52-4.57s1.73-2.18,2.87-2.81,2.38-.95,3.73-.95Z"/>
    </g>
    <g>
      <path class="cls-1" d="M83.73,43.05c-5.46,6.49-14.01,10.71-22.45,11.64-2.88,15.65-16.38,23.79-31,23.79-15.55,0-30.28-9.27-30.28-28.12V0h19.57v25.13c4.53-3.91,10.3-5.56,16.07-5.56,11.74,0,21.11,6.9,24.72,18.13,3.81.82,8.86-1.44,13.29-6.18l10.09,11.53ZM41.81,49.12c-3.09-2.88-5.25-7-6.28-12.46-1.44-.72-3.19-1.13-5.05-1.13-4.43,0-8.65,2.27-10.92,6.18v7.72c0,7.62,3.91,12.36,10.92,12.36s11.23-4.43,11.33-12.67Z"/>
      <path class="cls-1" d="M153.14,66.01c-5.87,8.03-15.55,12.46-24.72,12.46-6.69,0-12.87-2.37-16.27-7.31-4.74,4.84-11.53,7.31-18.74,7.31-11.95,0-23.17-6.59-23.17-20.29V20.91h19.57v31.51c0,5.15,2.68,9.37,9.27,9.37,4.12,0,7.72-1.65,9.89-4.63V20.91h19.57v35.22c0,3.91,2.06,5.97,5.05,5.97s6.39-1.96,9.58-5.87l9.99,9.78Z"/>
      <path class="cls-1" d="M211.54,66.01c-6.8,8.34-14.42,12.46-23.27,12.46-11.74,0-18.64-7.21-27.4-18.85-9.06,12.26-18.13,19.05-31.41,18.85l.62-16.38c8.75,1.75,13.8-6.49,20.7-16.07-4.33-5.66-8.96-10.5-14.11-10.61h-.52l.31-15.45c1.44-.21,2.88-.31,4.22-.31,9.47,0,15.34,5.36,22.86,14.73,8.75-10.71,13.8-14.73,22.56-14.73,1.65,0,3.4.1,5.15.41l-.62,14.83c-.31-.1-.62-.1-.82-.1-5.66,0-8.86,3.91-16.38,12.77,7.31,9.47,12.36,14.73,17.41,14.73,3.6,0,7.62-2.27,10.81-6.28l9.89,9.99Z"/>
      <path class="cls-1" d="M243.16,66.01c-5.87,8.03-15.55,12.46-24.72,12.46-10.5,0-19.46-5.77-19.46-17.71V0h19.57v56.13c0,3.91,2.06,5.97,5.05,5.97s6.39-1.96,9.58-5.87l9.99,9.78Z"/>
      <path class="cls-1" d="M313.71,66.01c-5.56,7.72-14.42,12.05-22.97,12.46-.52,0-1.03,0-1.55-.1v2.57c0,13.29-10.81,19.05-23.38,19.05-10.61,0-21.22-4.12-21.22-13.8,0-9.17,9.47-13.7,19.05-13.7,2.06,0,4.02.21,5.97.62v-6.39c-4.43,3.5-10.4,5.25-16.48,5.25-11.54,0-22.35-6.39-22.35-20.29v-30.79h19.57v25.64c0,6.39,4.43,8.86,9.48,8.86,4.02,0,7.83-1.75,9.78-4.74v-29.76h19.57v41.09c1.24.31,2.37.41,3.4.41,5.15,0,8.44-2.68,10.92-6.08l10.2,9.68ZM269.63,81.67c-1.96-.52-3.91-.72-5.56-.72-3.91,0-6.8,1.34-6.8,3.6s2.57,3.3,5.25,3.3c3.6,0,6.8-1.96,7.11-6.18Z"/>
    </g>
    <rect class="cls-1" x="332.8" y="1.59" width="4.58" height="98.41"/>
  </g>
</svg>